<?xml version="1.0" standalone="no"?>
<!DOCTYPE svg PUBLIC "-//W3C//DTD SVG 20010904//EN"
 "http://www.w3.org/TR/2001/REC-SVG-20010904/DTD/svg10.dtd">
<svg version="1.0" xmlns="http://www.w3.org/2000/svg"
 width="700.000000pt" height="700.000000pt" viewBox="0 0 700.000000 700.000000"
 preserveAspectRatio="xMidYMid meet">
<metadata>
Created by potrace 1.11, written by Peter Selinger 2001-2013
</metadata>
<g transform="translate(0.000000,700.000000) scale(0.100000,-0.100000)"
fill="#000000" stroke="none">
<path d="M2585 6074 c-90 -21 -119 -31 -180 -63 -88 -45 -214 -169 -271 -266
-174 -296 -195 -683 -53 -992 195 -426 596 -563 929 -318 135 99 242 271 296
472 100 375 3 770 -247 1009 -67 62 -183 128 -269 151 -25 7 -184 12 -205 7z"/>
<path d="M4442 5968 c-182 -28 -363 -173 -474 -378 -122 -226 -150 -550 -72
-819 15 -54 47 -132 65 -161 5 -8 13 -25 19 -38 34 -79 171 -225 262 -280 100
-59 161 -76 283 -77 90 0 122 4 178 23 175 61 335 223 420 427 64 153 86 278
82 455 -2 69 -6 139 -10 155 -22 103 -27 124 -40 160 -50 150 -115 256 -220
360 -141 141 -314 202 -493 173z"/>
<path d="M953 4715 c-184 -41 -337 -180 -398 -360 -26 -76 -27 -82 -31 -200
-4 -121 11 -215 52 -324 25 -66 91 -202 103 -211 3 -3 24 -30 45 -62 107 -158
305 -309 497 -379 106 -39 140 -44 274 -44 152 1 208 16 315 83 135 86 215
211 249 392 11 62 7 224 -8 285 -38 157 -76 244 -164 375 -151 224 -377 382
-638 446 -54 14 -236 13 -296 -1z"/>
<path d="M5789 4446 c-2 -2 -25 -6 -51 -9 -75 -9 -227 -64 -313 -114 -256
-147 -442 -378 -517 -641 -30 -106 -32 -288 -3 -382 55 -185 186 -313 385
-377 66 -21 250 -25 339 -8 485 95 880 565 847 1010 -23 313 -261 525 -591
525 -50 0 -94 -2 -96 -4z"/>
<path d="M3398 4005 c-2 -2 -30 -6 -62 -10 -238 -27 -474 -204 -578 -434 -60
-131 -85 -311 -63 -444 9 -53 -17 -135 -59 -183 -46 -53 -111 -81 -211 -89
-323 -25 -613 -212 -769 -496 -94 -171 -137 -399 -111 -589 43 -316 239 -596
515 -735 154 -78 286 -106 470 -100 178 5 264 34 516 168 60 32 160 61 259 74
98 14 276 6 376 -16 121 -26 137 -32 207 -79 201 -136 478 -185 720 -127 12 3
31 7 43 10 84 18 205 78 304 151 179 131 301 311 363 532 36 132 38 340 4 475
-46 186 -141 348 -277 475 -167 157 -345 234 -590 258 -90 8 -132 23 -179 65
-74 65 -81 89 -82 284 -1 184 -3 204 -41 308 -104 288 -373 487 -680 501 -40
2 -74 2 -75 1z"/>
</g>
</svg>
